<svg xmlns="http://www.w3.org/2000/svg" viewBox="0 0 800 450" role="img" aria-label="ci cd quality gates illustration" preserveAspectRatio="xMidYMid slice">
<defs><linearGradient id="bg" x1="0" y1="0" x2="1" y2="1"><stop offset="0" stop-color="#f1f7ff"/><stop offset="1" stop-color="#e7f8f1"/></linearGradient>
<pattern id="dots" width="28" height="28" patternUnits="userSpaceOnUse"><circle cx="2" cy="2" r="1.4" fill="#94a3b8" opacity=".18"/></pattern></defs>
<rect width="800" height="450" fill="url(#bg)"/><rect width="800" height="450" fill="url(#dots)"/>
<circle cx="740" cy="30" r="110" fill="#059669" opacity=".07"/><circle cx="40" cy="430" r="130" fill="#2563eb" opacity=".07"/>

    <g><rect x="70" y="170" width="110" height="90" rx="14" fill="#ffffff" stroke="#059669" stroke-opacity=".7"/><text x="125" y="238" text-anchor="middle" font-size="14" fill="#64748b" font-family="sans-serif">Commit</text><g transform="translate(125 205) scale(1.3)"><circle r="11" fill="#059669" opacity=".18"/><path d="M-5 0l3.5 4 7-8" fill="none" stroke="#059669" stroke-width="3" stroke-linecap="round" stroke-linejoin="round"/></g></g><path d="M182 215h26" stroke="#64748b" stroke-width="3" opacity=".6"/><g><rect x="210" y="170" width="110" height="90" rx="14" fill="#ffffff" stroke="#059669" stroke-opacity=".7"/><text x="265" y="238" text-anchor="middle" font-size="14" fill="#64748b" font-family="sans-serif">Build</text><g transform="translate(265 205) scale(1.3)"><circle r="11" fill="#059669" opacity=".18"/><path d="M-5 0l3.5 4 7-8" fill="none" stroke="#059669" stroke-width="3" stroke-linecap="round" stroke-linejoin="round"/></g></g><path d="M322 215h26" stroke="#64748b" stroke-width="3" opacity=".6"/><g><rect x="350" y="170" width="110" height="90" rx="14" fill="#ffffff" stroke="#059669" stroke-opacity=".7"/><text x="405" y="238" text-anchor="middle" font-size="14" fill="#64748b" font-family="sans-serif">Test</text><g transform="translate(405 205) scale(1.3)"><circle r="11" fill="#059669" opacity=".18"/><path d="M-5 0l3.5 4 7-8" fill="none" stroke="#059669" stroke-width="3" stroke-linecap="round" stroke-linejoin="round"/></g></g><path d="M462 215h26" stroke="#64748b" stroke-width="3" opacity=".6"/><g><rect x="490" y="170" width="110" height="90" rx="14" fill="#ffffff" stroke="#f59e0b" stroke-opacity=".7"/><text x="545" y="238" text-anchor="middle" font-size="14" fill="#64748b" font-family="sans-serif">Gate</text><g transform="translate(545 205) scale(1.3)"><circle r="11" fill="#f59e0b" opacity=".18"/><path d="M-5 0l3.5 4 7-8" fill="none" stroke="#f59e0b" stroke-width="3" stroke-linecap="round" stroke-linejoin="round"/></g></g><path d="M602 215h26" stroke="#64748b" stroke-width="3" opacity=".6"/><g><rect x="630" y="170" width="110" height="90" rx="14" fill="#ffffff" stroke="#059669" stroke-opacity=".7"/><text x="685" y="238" text-anchor="middle" font-size="14" fill="#64748b" font-family="sans-serif">Deploy</text><g transform="translate(685 205) scale(1.3)"><circle r="11" fill="#059669" opacity=".18"/><path d="M-5 0l3.5 4 7-8" fill="none" stroke="#059669" stroke-width="3" stroke-linecap="round" stroke-linejoin="round"/></g></g>
    <text x="400" y="320" text-anchor="middle" font-size="14" fill="#059669" font-family="monospace">pipeline #128 - all checks passed</text>
</svg>
