<svg xmlns="http://www.w3.org/2000/svg" viewBox="0 0 800 450" role="img" aria-label="jmeter performance load testing illustration" preserveAspectRatio="xMidYMid slice">
<defs><linearGradient id="bg" x1="0" y1="0" x2="1" y2="1"><stop offset="0" stop-color="#f1f7ff"/><stop offset="1" stop-color="#e7f8f1"/></linearGradient>
<pattern id="dots" width="28" height="28" patternUnits="userSpaceOnUse"><circle cx="2" cy="2" r="1.4" fill="#94a3b8" opacity=".18"/></pattern></defs>
<rect width="800" height="450" fill="url(#bg)"/><rect width="800" height="450" fill="url(#dots)"/>
<circle cx="740" cy="30" r="110" fill="#059669" opacity=".07"/><circle cx="40" cy="430" r="130" fill="#2563eb" opacity=".07"/>

    <g><rect x="110" y="70" width="580" height="310" rx="12" fill="#ffffff" stroke="#64748b" stroke-opacity=".35"/><path d="M110 100V82a12 12 0 0 1 12-12h556a12 12 0 0 1 12 12v18z" fill="#e8eef6"/><circle cx="128" cy="85" r="4" fill="#ef4444"/><circle cx="142" cy="85" r="4" fill="#f59e0b"/><circle cx="156" cy="85" r="4" fill="#059669"/><text x="176" y="89" font-size="11" fill="#64748b" font-family="monospace">jmeter - aggregate report</text></g>
    <path d="M150 330H650M150 330V120" stroke="#64748b" opacity=".4"/>
    <path d="M150 310C230 300 290 280 350 250S450 160 520 150 600 190 640 140" fill="none" stroke="#2563eb" stroke-width="4"/>
    <path d="M150 316C230 312 290 308 350 300S470 290 640 285" fill="none" stroke="#059669" stroke-width="3" stroke-dasharray="7 6"/>
    <circle cx="520" cy="150" r="7" fill="#ef4444"/>
    <text x="528" y="138" font-size="12" fill="#ef4444" font-family="monospace">p95 spike</text>
    <text x="160" y="112" font-size="12" fill="#64748b" font-family="monospace">1000 users</text>
</svg>
