<svg xmlns="http://www.w3.org/2000/svg" viewBox="0 0 800 450" role="img" aria-label="mobile app test automation illustration" preserveAspectRatio="xMidYMid slice">
<defs><linearGradient id="bg" x1="0" y1="0" x2="1" y2="1"><stop offset="0" stop-color="#f1f7ff"/><stop offset="1" stop-color="#e7f8f1"/></linearGradient>
<pattern id="dots" width="28" height="28" patternUnits="userSpaceOnUse"><circle cx="2" cy="2" r="1.4" fill="#94a3b8" opacity=".18"/></pattern></defs>
<rect width="800" height="450" fill="url(#bg)"/><rect width="800" height="450" fill="url(#dots)"/>
<circle cx="740" cy="30" r="110" fill="#059669" opacity=".07"/><circle cx="40" cy="430" r="130" fill="#2563eb" opacity=".07"/>

    <rect x="300" y="40" width="200" height="370" rx="30" fill="#ffffff" stroke="#64748b" stroke-opacity=".5" stroke-width="3"/>
    <rect x="375" y="52" width="50" height="8" rx="4" fill="#64748b" opacity=".4"/>
    <g transform="translate(0 0)"><rect x="325" y="95" width="150" height="48" rx="10" fill="#e8eef6"/><g transform="translate(350 119) scale(0.9)"><circle r="11" fill="#059669" opacity=".18"/><path d="M-5 0l3.5 4 7-8" fill="none" stroke="#059669" stroke-width="3" stroke-linecap="round" stroke-linejoin="round"/></g><rect x="372" y="112" width="80" height="8" rx="4" fill="#64748b" opacity="0.4"/><rect x="372" y="128" width="55" height="8" rx="4" fill="#64748b" opacity="0.25"/></g><g transform="translate(0 62)"><rect x="325" y="95" width="150" height="48" rx="10" fill="#e8eef6"/><g transform="translate(350 119) scale(0.9)"><circle r="11" fill="#059669" opacity=".18"/><path d="M-5 0l3.5 4 7-8" fill="none" stroke="#059669" stroke-width="3" stroke-linecap="round" stroke-linejoin="round"/></g><rect x="372" y="112" width="80" height="8" rx="4" fill="#64748b" opacity="0.4"/><rect x="372" y="128" width="55" height="8" rx="4" fill="#64748b" opacity="0.25"/></g><g transform="translate(0 124)"><rect x="325" y="95" width="150" height="48" rx="10" fill="#e8eef6"/><g transform="translate(350 119) scale(0.9)"><circle r="11" fill="#059669" opacity=".18"/><path d="M-5 0l3.5 4 7-8" fill="none" stroke="#059669" stroke-width="3" stroke-linecap="round" stroke-linejoin="round"/></g><rect x="372" y="112" width="80" height="8" rx="4" fill="#64748b" opacity="0.4"/><rect x="372" y="128" width="55" height="8" rx="4" fill="#64748b" opacity="0.25"/></g><g transform="translate(0 186)"><rect x="325" y="95" width="150" height="48" rx="10" fill="#e8eef6"/><g transform="translate(350 119) scale(0.9)"><circle r="11" fill="#059669" opacity=".18"/><path d="M-5 0l3.5 4 7-8" fill="none" stroke="#059669" stroke-width="3" stroke-linecap="round" stroke-linejoin="round"/></g><rect x="372" y="112" width="80" height="8" rx="4" fill="#64748b" opacity="0.4"/><rect x="372" y="128" width="55" height="8" rx="4" fill="#64748b" opacity="0.25"/></g>
    <g transform="translate(580 150)"><rect x="-40" y="-30" width="80" height="60" rx="10" fill="#ffffff" stroke="#2563eb" stroke-opacity=".6"/><text y="6" text-anchor="middle" font-size="14" fill="#2563eb" font-family="monospace">Android</text></g>
    <g transform="translate(220 280)"><rect x="-40" y="-30" width="80" height="60" rx="10" fill="#ffffff" stroke="#059669" stroke-opacity=".6"/><text y="6" text-anchor="middle" font-size="14" fill="#059669" font-family="monospace">iOS</text></g>
</svg>
